<svg width="350" height="350" viewBox="0 0 350 350" fill="none" xmlns="http://www.w3.org/2000/svg">
<path d="M109.943 86.5105C109.943 86.5105 150.142 117.015 211.255 59.9764C265.529 9.32075 309.844 89.244 310.154 127.518C310.557 177.098 255.88 216.768 282.414 249.333C308.948 281.898 229.793 335.672 187.133 289.134C134.065 231.241 119.688 278.279 89.4398 278.279C67.7302 278.279 23.158 224.336 53.2572 184.204C78.5851 150.433 64.7722 139.225 58.0814 127.518C48.4328 110.632 71.3485 64.8008 109.943 86.5105Z" fill="#DEE9FF"/>
<path d="M174.984 155.871V269.072L87.093 231.109L87.5123 118.318L174.984 155.871Z" fill="#418DF9"/>
<path d="M174.985 155.939V269.139L262.448 232.488V118.68L174.985 155.939Z" fill="#A2BDFF"/>
<path d="M174.984 155.871L262.874 119.059L175.674 80.4052L87.093 118.138L174.984 155.871Z" fill="#699CFF"/>
<path d="M120.224 104.025L207.78 142.135L208.575 169.906L233.072 159.798L232.331 131.851L142.186 94.6702L120.224 104.025Z" fill="#418DF9"/>
<path d="M202.794 196.554C204.182 196.554 205.306 194.5 205.306 191.968C205.306 189.435 204.182 187.382 202.794 187.382C201.406 187.382 200.281 189.435 200.281 191.968C200.281 194.5 201.406 196.554 202.794 196.554Z" fill="white"/>
<path d="M243.273 180.062C244.66 180.062 245.785 178.008 245.785 175.475C245.785 172.943 244.66 170.889 243.273 170.889C241.885 170.889 240.76 172.943 240.76 175.475C240.76 178.008 241.885 180.062 243.273 180.062Z" fill="white"/>
<path d="M217.354 220.765L215.722 220.131C219.337 210.824 223.87 205.697 229.196 204.892C234.291 204.122 238.582 207.632 240.139 209.595L238.768 210.683C237.691 209.325 233.921 205.948 229.458 206.623C224.863 207.317 220.677 212.207 217.354 220.765Z" fill="white"/>
</svg>
